<?xml version="1.0" encoding="UTF-8" standalone="no"?>
<!DOCTYPE svg PUBLIC "-//W3C//DTD SVG 1.1//EN" "http://www.w3.org/Graphics/SVG/1.1/DTD/svg11.dtd">
<svg width="100%" height="100%" viewBox="0 0 150 39" version="1.1" xmlns="http://www.w3.org/2000/svg" xmlns:xlink="http://www.w3.org/1999/xlink" xml:space="preserve" xmlns:serif="http://www.serif.com/" style="fill-rule:evenodd;clip-rule:evenodd;stroke-linejoin:round;stroke-miterlimit:2;">
    <g transform="matrix(1,0,0,1,-209.295,-171.508)">
        <g transform="matrix(0.880257,0,0,0.880257,65.7841,9.5256)">
            <g transform="matrix(0.58382,0,0,0.58382,133.538,-83.5359)">
                <path d="M59.29,516.102L59.29,473.908C59.29,470.9 59.957,468.223 61.29,465.878C62.624,463.533 64.496,461.68 66.907,460.32C69.318,458.96 72.139,458.28 75.371,458.28C77.841,458.28 79.973,458.694 81.766,459.522C83.56,460.35 85.179,461.512 86.624,463.01L80.042,469.593C79.477,469.014 78.846,468.564 78.15,468.243C77.454,467.921 76.593,467.76 75.568,467.76C73.689,467.76 72.234,468.275 71.203,469.307C70.172,470.338 69.656,471.793 69.656,473.672L69.656,516.102L59.29,516.102ZM50.52,487.093L50.52,478.027L80.889,478.027L80.889,487.093L50.52,487.093Z" style="fill:#e3eaf6;fill-rule:nonzero;"/>
            </g>
            <g transform="matrix(0.58382,0,0,0.58382,133.538,-83.5359)">
                <path d="M102.981,516.93C99.158,516.93 95.706,516.05 92.625,514.289C89.544,512.529 87.104,510.137 85.304,507.116C83.504,504.094 82.604,500.717 82.604,496.986C82.604,493.255 83.5,489.904 85.294,486.935C87.087,483.966 89.524,481.601 92.605,479.84C95.686,478.08 99.138,477.2 102.962,477.2C106.824,477.2 110.293,478.07 113.367,479.811C116.442,481.552 118.879,483.917 120.679,486.906C122.479,489.895 123.379,493.255 123.379,496.986C123.379,500.717 122.482,504.094 120.688,507.116C118.895,510.137 116.461,512.529 113.387,514.289C110.312,516.05 106.844,516.93 102.981,516.93ZM102.962,507.273C104.906,507.273 106.621,506.84 108.105,505.973C109.59,505.105 110.743,503.893 111.564,502.336C112.385,500.78 112.796,499.003 112.796,497.006C112.796,495.009 112.372,493.251 111.525,491.734C110.677,490.216 109.524,489.024 108.066,488.157C106.607,487.29 104.906,486.856 102.962,486.856C101.07,486.856 99.381,487.293 97.897,488.167C96.412,489.041 95.256,490.236 94.428,491.754C93.601,493.271 93.187,495.028 93.187,497.025C93.187,499.009 93.601,500.78 94.428,502.336C95.256,503.893 96.412,505.105 97.897,505.973C99.381,506.84 101.07,507.273 102.962,507.273Z" style="fill:#e3eaf6;fill-rule:nonzero;"/>
            </g>
            <g transform="matrix(0.58382,0,0,0.58382,133.538,-83.5359)">
                <path d="M133.981,516.102L133.981,462.222L144.347,462.222L144.347,516.102L133.981,516.102ZM125.113,487.093L125.113,478.027L153.216,478.027L153.216,487.093L125.113,487.093Z" style="fill:#e3eaf6;fill-rule:nonzero;"/>
            </g>
            <g transform="matrix(0.58382,0,0,0.58382,133.538,-83.5359)">
                <path d="M175.327,516.93C171.504,516.93 168.052,516.05 164.971,514.289C161.89,512.529 159.45,510.137 157.65,507.116C155.85,504.094 154.95,500.717 154.95,496.986C154.95,493.255 155.847,489.904 157.64,486.935C159.433,483.966 161.87,481.601 164.951,479.84C168.032,478.08 171.484,477.2 175.308,477.2C179.17,477.2 182.639,478.07 185.713,479.811C188.788,481.552 191.225,483.917 193.025,486.906C194.825,489.895 195.725,493.255 195.725,496.986C195.725,500.717 194.828,504.094 193.035,507.116C191.241,510.137 188.807,512.529 185.733,514.289C182.659,516.05 179.19,516.93 175.327,516.93ZM175.308,507.273C177.252,507.273 178.967,506.84 180.451,505.973C181.936,505.105 183.089,503.893 183.91,502.336C184.731,500.78 185.142,499.003 185.142,497.006C185.142,495.009 184.718,493.251 183.871,491.734C183.023,490.216 181.87,489.024 180.412,488.157C178.954,487.29 177.252,486.856 175.308,486.856C173.416,486.856 171.728,487.293 170.243,488.167C168.758,489.041 167.602,490.236 166.774,491.754C165.947,493.271 165.533,495.028 165.533,497.025C165.533,499.009 165.947,500.78 166.774,502.336C167.602,503.893 168.758,505.105 170.243,505.973C171.728,506.84 173.416,507.273 175.308,507.273Z" style="fill:#e3eaf6;fill-rule:nonzero;"/>
            </g>
            <g transform="matrix(0.58382,0,0,0.58382,133.538,-83.5359)">
                <path d="M213.631,510.944L216.787,510.098C217.121,510.098 217.288,510.316 217.288,510.752C217.288,511.188 216.569,511.842 215.132,512.715C211.232,515.076 208.313,516.256 206.375,516.256C204.438,516.256 203.469,515.332 203.469,513.485L203.469,512.869C203.469,512.33 204.085,509.584 205.317,504.632C206.549,499.679 207.549,495.189 208.319,491.16C209.089,487.131 210.115,482.204 211.399,476.379C212.682,470.554 213.323,467.013 213.323,465.756C213.323,464.498 212.566,463.626 211.052,463.138C209.538,462.651 208.781,462.099 208.781,461.483C208.781,461.227 208.986,460.996 209.397,460.79C211.424,459.738 214.362,459.212 218.211,459.212L218.904,459.212C219.982,459.212 220.521,459.892 220.521,461.252L220.521,461.945C220.521,462.587 219.886,465.717 218.616,471.337C217.345,476.957 215.844,484.328 214.112,493.45C212.38,502.573 211.514,507.275 211.514,507.557C211.514,509.815 212.22,510.944 213.631,510.944Z" style="fill:#e3eaf6;fill-rule:nonzero;"/>
            </g>
            <g transform="matrix(0.58382,0,0,0.58382,133.538,-83.5359)">
                <path d="M250.472,481.306C251.37,481.306 252.178,481.518 252.897,481.941C253.615,482.365 253.974,483.09 253.974,484.116C253.974,484.552 252.897,487.182 250.741,492.007C245.635,503.426 240.9,512.381 236.538,518.874C234.177,522.389 231.335,525.725 228.012,528.881C224.689,532.037 222.258,533.616 220.718,533.616L219.794,533.616C217.459,533.616 216.292,532.871 216.292,531.383C216.292,530.074 217.587,529.189 220.179,528.727C222.745,528.265 224.978,527.072 226.877,525.148C230.264,521.683 231.97,518.104 231.996,514.409C231.996,513.947 231.726,512.689 231.188,510.636C230.649,508.584 229.776,504.51 228.57,498.415C227.364,492.321 226.697,489.107 226.569,488.773C225.953,487.285 224.747,486.387 222.95,486.079C222.001,485.899 221.526,485.797 221.526,485.771L222.797,485.117C225.594,483.551 227.608,482.769 228.84,482.769C231.534,482.769 233.69,487.773 235.306,497.78C236.256,503.631 237.102,506.556 237.847,506.556C239.181,506.556 241.041,503.99 243.428,498.858C245.814,493.726 247.007,489.877 247.007,487.311L246.469,483.462C246.469,482.025 247.803,481.306 250.472,481.306Z" style="fill:#e3eaf6;fill-rule:nonzero;"/>
            </g>
            <g transform="matrix(0.58382,0,0,0.58382,133.538,-83.5359)">
                <path d="M261.443,516.295C259.288,516.295 258.21,514.601 258.21,511.214L258.21,510.559C258.21,510.482 258.973,507.948 260.5,502.957C262.027,497.966 262.79,494.521 262.79,492.623C262.79,490.724 262.328,489.415 261.405,488.696C259.66,487.362 258.787,486.464 258.787,486.002C258.787,484.847 259.506,483.738 260.943,482.673C262.38,481.608 263.714,481.075 264.946,481.075C266.178,481.075 267.185,481.383 267.967,481.999C268.75,482.615 269.141,483.539 269.141,484.77L268.949,488.312C268.949,489.235 269.103,489.697 269.411,489.697C269.719,489.697 270.649,488.831 272.201,487.099C273.754,485.367 275.21,483.988 276.57,482.961C277.93,481.935 279.56,481.422 281.459,481.422C283.357,481.422 284.307,482.268 284.307,483.962L284.307,484.347C284.307,485.142 283.954,485.88 283.248,486.56C282.543,487.24 281.561,487.58 280.304,487.58L276.57,486.926C274.646,486.926 272.612,489.389 270.469,494.316C268.327,499.243 267.255,503.926 267.255,508.365L267.332,509.52L267.332,510.752C267.332,512.394 266.902,513.729 266.043,514.755C265.183,515.781 263.894,516.295 262.174,516.295L261.443,516.295Z" style="fill:#e3eaf6;fill-rule:nonzero;"/>
            </g>
            <g transform="matrix(0.58382,0,0,0.58382,133.538,-83.5359)">
                <path d="M304.054,467.95C304.054,468.668 303.631,469.451 302.784,470.298C301.937,471.145 301.078,471.568 300.205,471.568L299.397,471.568C298.524,471.568 297.755,471.234 297.087,470.567C296.42,469.9 296.087,469.207 296.087,468.489L295.971,467.719L295.971,467.295L296.01,467.18L296.01,466.91C296.061,466.757 296.087,466.628 296.087,466.526C296.087,465.833 296.517,465.056 297.376,464.197C298.236,463.337 299.179,462.907 300.205,462.907L300.629,462.907C301.578,462.907 302.386,463.241 303.054,463.908C303.721,464.575 304.054,465.217 304.054,465.833L304.17,466.641L304.17,467.18L304.131,467.295L304.131,467.565C304.08,467.77 304.054,467.898 304.054,467.95ZM289.004,486.387C288.286,486.387 287.927,485.989 287.927,485.194C287.927,484.783 288.427,484.244 289.428,483.577C292.404,481.601 295.266,480.613 298.011,480.613L298.512,480.613C299.923,480.613 300.629,481.556 300.629,483.442C300.629,485.328 299.801,489.479 298.146,495.894C296.491,502.309 295.663,506.441 295.663,508.288C295.663,510.136 296.241,511.06 297.395,511.06C297.934,511.06 298.537,510.925 299.204,510.656C299.872,510.386 300.411,510.251 300.821,510.251C301.103,510.251 301.245,510.431 301.245,510.79L301.245,511.098C301.245,511.663 300.539,512.356 299.128,513.177C295.484,515.307 292.366,516.372 289.774,516.372C287.875,516.372 286.926,515.563 286.926,513.947L286.926,513.446C286.926,512.959 287.324,511.733 288.119,509.77C288.915,507.807 289.999,504.228 291.372,499.031C292.744,493.835 293.431,490.403 293.431,488.735C293.431,487.067 292.661,486.233 291.121,486.233C289.992,486.336 289.287,486.387 289.004,486.387Z" style="fill:#e3eaf6;fill-rule:nonzero;"/>
            </g>
            <g transform="matrix(0.58382,0,0,0.58382,133.538,-83.5359)">
                <path d="M314.141,484.578C316.014,474.134 316.95,468.136 316.95,466.583C316.95,465.031 316.752,464.049 316.354,463.639C315.956,463.228 315.263,462.773 314.275,462.272C313.287,461.772 312.793,461.291 312.793,460.829C312.793,460.367 313.05,459.982 313.563,459.674C315.077,458.802 317.618,458.365 321.184,458.365L322.378,458.365C323.507,458.365 324.071,459.02 324.071,460.328C324.071,460.816 323.263,465.98 321.646,475.821C320.03,485.662 319.221,490.916 319.221,491.583C319.221,493.97 319.555,495.163 320.222,495.163C320.453,495.163 323.045,492.738 327.997,487.888C328.973,486.939 330.121,486.041 331.442,485.194C332.764,484.347 333.681,483.603 334.194,482.961L334.348,482.615C334.502,482.487 335.58,482.422 337.582,482.422C339.583,482.422 340.584,482.897 340.584,483.847C340.584,484.36 339.57,485.335 337.543,486.772C335.516,488.209 334.297,489.12 333.887,489.505C330.114,493.046 328.228,495.548 328.228,497.011C328.228,498.473 331.353,504.632 335.792,511.56C336.921,513.305 338.14,514.178 339.449,514.178C339.731,514.178 339.962,514.152 340.141,514.101L338.833,514.716C336.805,515.64 335.157,516.102 333.887,516.102C332.616,516.102 331.494,515.461 330.519,514.178C330.057,513.639 329.543,512.651 328.979,511.214C326.156,504.234 323.186,498.781 321.877,498.781C320.697,498.781 319.645,499.91 318.721,502.168C318.105,503.657 317.605,505.729 317.22,508.385C316.835,511.041 316.386,512.664 315.873,513.254C314.718,514.588 313.012,515.255 310.753,515.255C309.958,515.255 309.291,514.935 308.752,514.293C308.213,513.652 307.944,512.991 307.944,512.311C307.944,511.631 308.085,510.944 308.367,510.251L309.291,508.096C309.727,506.813 310.182,505.184 310.657,503.208C311.132,501.232 312.293,495.022 314.141,484.578Z" style="fill:#e3eaf6;fill-rule:nonzero;"/>
            </g>
        </g>
    </g>
</svg>
